<svg width="153" height="153" viewBox="0 0 153 153" fill="none" xmlns="http://www.w3.org/2000/svg">
<path fill-rule="evenodd" clip-rule="evenodd" d="M58.9707 113.105C58.9707 113.105 53.8421 116.086 62.6079 117.079C73.2312 118.282 78.6477 118.125 90.3439 115.903C90.3439 115.903 93.4316 117.838 97.7227 119.511C71.5043 130.728 38.3779 118.857 58.9707 113.105ZM55.7783 98.4365C55.7783 98.4365 50.048 102.672 58.8137 103.588C70.1438 104.764 79.1186 104.843 94.609 101.862C94.609 101.862 96.7545 104.032 100.13 105.209C68.3905 114.491 33.0662 105.967 55.7783 98.4365ZM82.7819 73.5707C89.245 80.9965 81.081 87.6901 81.081 87.6901C81.081 87.6901 97.4873 79.2183 89.9514 68.6289C82.9125 58.7451 77.5224 53.8296 106.724 36.9123C106.75 36.9123 60.881 48.3649 82.7819 73.5707ZM117.478 123.93C117.478 123.93 121.272 127.041 113.318 129.473C98.1675 134.049 50.3098 135.435 37.0173 129.656C32.2289 127.59 41.2039 124.688 44.0299 124.087C46.9604 123.459 48.6613 123.564 48.6613 123.564C43.3495 119.825 14.305 130.911 33.9035 134.075C87.3347 142.756 131.346 130.179 117.478 123.93ZM61.4304 83.2451C61.4304 83.2451 37.0696 89.0236 52.7954 91.1154C59.4417 92.0044 72.6817 91.7952 85.0061 90.7755C95.0801 89.9388 105.206 88.1084 105.206 88.1084C105.206 88.1084 101.648 89.625 99.0833 91.3769C74.3563 97.8876 26.6031 94.8545 40.3403 88.213C51.9841 82.6175 61.4302 83.245 61.4302 83.245M105.128 107.64C130.273 94.5928 118.63 82.0424 110.518 83.7418C108.529 84.1602 107.64 84.5262 107.64 84.5262C107.64 84.5262 108.372 83.3757 109.785 82.8789C125.825 77.2311 138.176 99.5086 104.604 108.32C104.604 108.294 104.997 107.954 105.128 107.64ZM89.9514 9.5625C89.9514 9.5625 103.872 23.4729 76.7375 44.861C54.9933 62.0137 71.7659 71.8189 76.7375 82.9837C64.0469 71.5311 54.7318 61.4645 60.9856 52.0777C70.1699 38.3504 95.5772 31.6568 89.9514 9.5625ZM63.916 143.017C88.0413 144.56 125.093 142.154 125.956 130.754C125.956 130.754 124.281 135.069 106.017 138.52C85.4246 142.39 60.0174 141.945 44.9718 139.461C44.9718 139.435 48.0595 141.998 63.916 143.017Z" fill="white"/>
</svg>
