<?xml version="1.0" encoding="UTF-8" standalone="no"?>
<svg
   xmlns:dc="http://purl.org/dc/elements/1.1/"
   xmlns:cc="http://creativecommons.org/ns#"
   xmlns:rdf="http://www.w3.org/1999/02/22-rdf-syntax-ns#"
   xmlns:svg="http://www.w3.org/2000/svg"
   xmlns="http://www.w3.org/2000/svg"
   xmlns:sodipodi="http://sodipodi.sourceforge.net/DTD/sodipodi-0.dtd"
   xmlns:inkscape="http://www.inkscape.org/namespaces/inkscape"
   viewBox="0 0 421.81619 562.03558"
   id="svg4355"
   version="1.1"
   inkscape:version="0.91 r13725"
   sodipodi:docname="cycle.svg">
  <metadata
     id="metadata4394">
    <rdf:RDF>
      <cc:Work
         rdf:about="">
        <dc:format>image/svg+xml</dc:format>
        <dc:type
           rdf:resource="http://purl.org/dc/dcmitype/StillImage" />
        <dc:title></dc:title>
      </cc:Work>
    </rdf:RDF>
  </metadata>
  <sodipodi:namedview
     pagecolor="#ffffff"
     bordercolor="#666666"
     borderopacity="1"
     objecttolerance="10"
     gridtolerance="10"
     guidetolerance="10"
     inkscape:pageopacity="0"
     inkscape:pageshadow="2"
     inkscape:window-width="1600"
     inkscape:window-height="876"
     id="namedview4392"
     showgrid="false"
     inkscape:zoom="0.41990224"
     inkscape:cx="-199.90181"
     inkscape:cy="281.01779"
     inkscape:window-x="0"
     inkscape:window-y="24"
     inkscape:window-maximized="1"
     inkscape:current-layer="svg4355" />
  <defs
     id="defs4357">
    <marker
       id="Tail"
       orient="auto"
       refX="0"
       refY="0">
      <g
         transform="scale(-1.2)"
         id="g4360">
        <path
           d="m-3.80487-3.95852 4.34839,3.95852"
           fill="none"
           stroke="#000"
           stroke-linecap="round"
           stroke-width=".8"
           id="path4362" />
        <path
           d="m-1.28668-3.95852 4.34839,3.95852"
           fill="none"
           stroke="#000"
           stroke-linecap="round"
           stroke-width=".8"
           id="path4364" />
        <path
           d="m1.30536-3.95852 4.34839,3.95852"
           fill="none"
           stroke="#000"
           stroke-linecap="round"
           stroke-width=".8"
           id="path4366" />
        <path
           d="m-3.80487,4.17758 4.34839-3.95784"
           fill="none"
           stroke="#000"
           stroke-linecap="round"
           stroke-width=".8"
           id="path4368" />
        <path
           d="m-1.28668,4.17758 4.34839-3.95784"
           fill="none"
           stroke="#000"
           stroke-linecap="round"
           stroke-width=".8"
           id="path4370" />
        <path
           d="m1.30536,4.17758 4.34839-3.95784"
           fill="none"
           stroke="#000"
           stroke-linecap="round"
           stroke-width=".8"
           id="path4372" />
      </g>
    </marker>
    <marker
       orient="auto"
       refX="0"
       refY="0"
       id="marker4374">
      <path
         d="m8.71859,4.03374-10.92588-4.01772 10.92588-4.01772c-1.7455,2.37206-1.73544,5.61745-6e-007,8.03544z"
         fill-rule="evenodd"
         transform="matrix(-.3,0,0,-.3,.69,0)"
         id="path4376" />
    </marker>
    <marker
       orient="auto"
       refX="0"
       refY="0"
       id="marker4378">
      <path
         d="m8.71859,4.03374-10.92588-4.01772 10.92588-4.01772c-1.7455,2.37206-1.73544,5.61745-6e-007,8.03544z"
         fill-rule="evenodd"
         transform="matrix(1.1,0,0,1.1,1.1,0)"
         id="path4380" />
    </marker>
    <marker
       orient="auto"
       refX="0"
       refY="0"
       id="marker4382">
      <path
         d="m8.71859,4.03374-10.92588-4.01772 10.92588-4.01772c-1.7455,2.37206-1.73544,5.61745-6e-007,8.03544z"
         fill-rule="evenodd"
         transform="matrix(-1.1,0,0,-1.1,-1.1,0)"
         id="path4384" />
    </marker>
  </defs>
  <path
     style="fill-rule:evenodd;fill-opacity:1;fill:#a7ac93"
     inkscape:connector-curvature="0"
     id="path4388"
     d="M 374.69075,60.109196 322.20473,112.59521 C 243.94175,61.004605 136.83425,69.55045 68.137514,138.24719 -0.2169007,206.6016 -9.0117746,312.99488 41.723271,391.15444 l 0,-94.76428 58.064929,1e-5 c -4.679357,-33.43483 5.97747,-68.50554 31.98211,-94.51018 33.97704,-33.97703 83.41858,-41.74015 124.48168,-23.33203 l -81.69525,81.69524 200.13401,0 0,-200.134004 z" />
  <path
     style="fill-rule:evenodd;fill:#2a7fff;fill-opacity:1"
     inkscape:connector-curvature="0"
     id="path4390"
     d="m 380.08186,170.89214 0.0111,94.75323 -58.08703,0 c 4.69002,33.43853 -5.95218,68.50233 -31.96002,94.51017 -33.9774,33.97741 -83.42633,41.74894 -124.49271,23.34307 l 81.70628,-81.70628 -200.133997,0 -7e-6,200.134 52.486019,-52.48601 c 78.263865,51.57834 185.374615,43.04067 254.067245,-25.65196 68.35402,-68.35402 77.14158,-174.73677 26.40317,-252.89622 z" />
</svg>
