<?xml version="1.0" encoding="iso-8859-1"?>
<!-- Generator: Adobe Illustrator 19.0.0, SVG Export Plug-In . SVG Version: 6.00 Build 0)  -->
<svg xmlns="http://www.w3.org/2000/svg" xmlns:xlink="http://www.w3.org/1999/xlink" version="1.1" id="Capa_1" x="0px" y="0px" viewBox="0 0 60 60" style="enable-background:new 0 0 60 60;" xml:space="preserve" width="512px" height="512px">
<g>
	<path d="M7,3C4.794,3,3,4.794,3,7s1.794,4,4,4s4-1.794,4-4S9.206,3,7,3z M7,9C5.897,9,5,8.103,5,7s0.897-2,2-2s2,0.897,2,2   S8.103,9,7,9z" fill="#FFFFFF"/>
	<path d="M16,3c-2.206,0-4,1.794-4,4s1.794,4,4,4s4-1.794,4-4S18.206,3,16,3z M16,9c-1.103,0-2-0.897-2-2s0.897-2,2-2s2,0.897,2,2   S17.103,9,16,9z" fill="#FFFFFF"/>
	<path d="M25,3c-2.206,0-4,1.794-4,4s1.794,4,4,4s4-1.794,4-4S27.206,3,25,3z M25,9c-1.103,0-2-0.897-2-2s0.897-2,2-2s2,0.897,2,2   S26.103,9,25,9z" fill="#FFFFFF"/>
	<path d="M0,0v14v46h60V14V0H0z M2,2h56v10H2V2z M58,15v6v6v6v6v6v6v6v1h-1h-6h-6h-6h-6h-6h-6h-6H9H3H2v-1v-6v-6v-6v-6v-6v-6v-6v-1   h1h6h6h6h6h6h6h6h6h6h1V15z" fill="#FFFFFF"/>
	<path d="M42,19h-6h-6h-6h-6h-6H8v12v20c0,0.552,0.448,1,1,1s1-0.448,1-1h4c0,0.552,0.448,1,1,1s1-0.448,1-1h4c0,0.552,0.448,1,1,1   s1-0.448,1-1h4c0,0.552,0.448,1,1,1s1-0.448,1-1h4c0,0.552,0.448,1,1,1s1-0.448,1-1h4c0,0.552,0.448,1,1,1s1-0.448,1-1h4   c0,0.552,0.448,1,1,1s1-0.448,1-1h4c0,0.552,0.448,1,1,1s1-0.448,1-1V31V19h-4H42z M50,49H10V31h40V49z M50,29H10v-8h40V29z" fill="#FFFFFF"/>
	<rect x="13" y="24" width="8" height="2" fill="#FFFFFF"/>
	<path d="M42.293,27.707C42.488,27.902,42.744,28,43,28s0.512-0.098,0.707-0.293L45,26.414l1.293,1.293   C46.488,27.902,46.744,28,47,28s0.512-0.098,0.707-0.293c0.391-0.391,0.391-1.023,0-1.414L46.414,25l1.293-1.293   c0.391-0.391,0.391-1.023,0-1.414s-1.023-0.391-1.414,0L45,23.586l-1.293-1.293c-0.391-0.391-1.023-0.391-1.414,0   s-0.391,1.023,0,1.414L43.586,25l-1.293,1.293C41.902,26.684,41.902,27.316,42.293,27.707z" fill="#FFFFFF"/>
	<rect x="15" y="35" width="15" height="2" fill="#FFFFFF"/>
	<rect x="15" y="39" width="26" height="2" fill="#FFFFFF"/>
	<rect x="15" y="43" width="26" height="2" fill="#FFFFFF"/>
	<circle cx="54" cy="48" r="1" fill="#FFFFFF"/>
	<circle cx="57" cy="45" r="1" fill="#FFFFFF"/>
	<circle cx="57" cy="51" r="1" fill="#FFFFFF"/>
	<circle cx="54" cy="54" r="1" fill="#FFFFFF"/>
	<circle cx="57" cy="57" r="1" fill="#FFFFFF"/>
	<circle cx="51" cy="57" r="1" fill="#FFFFFF"/>
	<circle cx="48" cy="54" r="1" fill="#FFFFFF"/>
	<circle cx="45" cy="57" r="1" fill="#FFFFFF"/>
	<circle cx="42" cy="54" r="1" fill="#FFFFFF"/>
	<circle cx="39" cy="57" r="1" fill="#FFFFFF"/>
	<circle cx="36" cy="54" r="1" fill="#FFFFFF"/>
	<circle cx="33" cy="57" r="1" fill="#FFFFFF"/>
	<circle cx="30" cy="54" r="1" fill="#FFFFFF"/>
	<circle cx="27" cy="57" r="1" fill="#FFFFFF"/>
	<circle cx="24" cy="54" r="1" fill="#FFFFFF"/>
	<circle cx="21" cy="57" r="1" fill="#FFFFFF"/>
	<circle cx="18" cy="54" r="1" fill="#FFFFFF"/>
	<circle cx="15" cy="57" r="1" fill="#FFFFFF"/>
	<circle cx="12" cy="54" r="1" fill="#FFFFFF"/>
	<circle cx="9" cy="57" r="1" fill="#FFFFFF"/>
	<circle cx="6" cy="48" r="1" fill="#FFFFFF"/>
	<circle cx="3" cy="45" r="1" fill="#FFFFFF"/>
	<circle cx="3" cy="51" r="1" fill="#FFFFFF"/>
	<circle cx="6" cy="54" r="1" fill="#FFFFFF"/>
	<circle cx="54" cy="30" r="1" fill="#FFFFFF"/>
	<circle cx="6" cy="30" r="1" fill="#FFFFFF"/>
	<circle cx="54" cy="36" r="1" fill="#FFFFFF"/>
	<circle cx="57" cy="33" r="1" fill="#FFFFFF"/>
	<circle cx="57" cy="39" r="1" fill="#FFFFFF"/>
	<circle cx="54" cy="42" r="1" fill="#FFFFFF"/>
	<circle cx="6" cy="36" r="1" fill="#FFFFFF"/>
	<circle cx="3" cy="33" r="1" fill="#FFFFFF"/>
	<circle cx="54" cy="24" r="1" fill="#FFFFFF"/>
	<circle cx="6" cy="24" r="1" fill="#FFFFFF"/>
	<circle cx="57" cy="27" r="1" fill="#FFFFFF"/>
	<circle cx="3" cy="27" r="1" fill="#FFFFFF"/>
	<circle cx="54" cy="18" r="1" fill="#FFFFFF"/>
	<circle cx="48" cy="18" r="1" fill="#FFFFFF"/>
	<circle cx="42" cy="18" r="1" fill="#FFFFFF"/>
	<circle cx="36" cy="18" r="1" fill="#FFFFFF"/>
	<circle cx="30" cy="18" r="1" fill="#FFFFFF"/>
	<circle cx="24" cy="18" r="1" fill="#FFFFFF"/>
	<circle cx="18" cy="18" r="1" fill="#FFFFFF"/>
	<circle cx="12" cy="18" r="1" fill="#FFFFFF"/>
	<circle cx="6" cy="18" r="1" fill="#FFFFFF"/>
	<circle cx="57" cy="21" r="1" fill="#FFFFFF"/>
	<circle cx="3" cy="21" r="1" fill="#FFFFFF"/>
	<circle cx="57" cy="15" r="1" fill="#FFFFFF"/>
	<circle cx="51" cy="15" r="1" fill="#FFFFFF"/>
	<circle cx="45" cy="15" r="1" fill="#FFFFFF"/>
	<circle cx="39" cy="15" r="1" fill="#FFFFFF"/>
	<circle cx="33" cy="15" r="1" fill="#FFFFFF"/>
	<circle cx="27" cy="15" r="1" fill="#FFFFFF"/>
	<circle cx="21" cy="15" r="1" fill="#FFFFFF"/>
	<circle cx="15" cy="15" r="1" fill="#FFFFFF"/>
	<circle cx="9" cy="15" r="1" fill="#FFFFFF"/>
	<circle cx="3" cy="15" r="1" fill="#FFFFFF"/>
	<circle cx="3" cy="39" r="1" fill="#FFFFFF"/>
	<circle cx="6" cy="42" r="1" fill="#FFFFFF"/>
	<circle cx="3" cy="57" r="1" fill="#FFFFFF"/>
</g>
<g>
</g>
<g>
</g>
<g>
</g>
<g>
</g>
<g>
</g>
<g>
</g>
<g>
</g>
<g>
</g>
<g>
</g>
<g>
</g>
<g>
</g>
<g>
</g>
<g>
</g>
<g>
</g>
<g>
</g>
</svg>
