<?xml version="1.0" encoding="iso-8859-1"?>
<!-- Generator: Adobe Illustrator 19.1.0, SVG Export Plug-In . SVG Version: 6.00 Build 0)  -->
<svg xmlns="http://www.w3.org/2000/svg" xmlns:xlink="http://www.w3.org/1999/xlink" version="1.1" id="Capa_1" x="0px" y="0px" viewBox="0 0 329.286 329.286" style="enable-background:new 0 0 329.286 329.286;" xml:space="preserve" width="512px" height="512px">
<g>
	<path d="M329.286,52.166v63.338h-15V77.05L151.395,239.942l-51.911-51.911l-88.877,88.878L0,266.302l99.484-99.483l51.911,51.91   L302.956,67.167h-37.008v-15L329.286,52.166L329.286,52.166z M103.201,213.591l-52.917,52.917l10.607,10.607l52.917-52.917   L103.201,213.591z M298.246,126.14L157.877,266.51l10.607,10.606l140.369-140.369L298.246,126.14z M213.201,266.513l10.607,10.607   l103.297-103.297l-10.607-10.607L213.201,266.513z M268.507,266.512l10.607,10.607l46.392-46.392L314.9,220.12L268.507,266.512z    M104.975,266.309l10.607,10.607l23.39-23.39l-10.607-10.607L104.975,266.309z" fill="#2A7FFF"/>
</g>
<g>
</g>
<g>
</g>
<g>
</g>
<g>
</g>
<g>
</g>
<g>
</g>
<g>
</g>
<g>
</g>
<g>
</g>
<g>
</g>
<g>
</g>
<g>
</g>
<g>
</g>
<g>
</g>
<g>
</g>
</svg>
