<?xml version="1.0" encoding="iso-8859-1"?>
<!-- Generator: Adobe Illustrator 19.1.0, SVG Export Plug-In . SVG Version: 6.00 Build 0)  -->
<svg xmlns="http://www.w3.org/2000/svg" xmlns:xlink="http://www.w3.org/1999/xlink" version="1.1" id="Capa_1" x="0px" y="0px" viewBox="0 0 485.101 485.101" style="enable-background:new 0 0 485.101 485.101;" xml:space="preserve" width="512px" height="512px">
<g>
	<g>
		<path d="M465.5,336.706c0.3-2.2,0.4-4.3,0.4-6.6v-34.9c0-29.9-24.3-54.2-54.2-54.2h-20.2c-29.9,0-54.2,24.3-54.2,54.2v34.9    c0,2.2,0.2,4.4,0.4,6.5c-11.4,2.4-20,12.6-20,24.7v66.5c0,13.9,11.4,25.2,25.2,25.2h117c13.9,0,25.2-11.4,25.2-25.2v-66.5    C485.2,349.306,476.7,339.206,465.5,336.706z M409.8,397.106c-1.1,0.8-1.4,1.6-1.4,3c0,6,0,11.9,0,17.9l0,0c0,3.8-3.1,6.9-6.9,6.9    s-6.9-3.1-6.9-6.9l0,0c0-6,0-12,0-17.9c0-1.2-0.3-2-1.3-2.8c-5.4-4-7.2-10.8-4.5-16.8c2.6-5.8,9-9.2,15.1-8    c6.7,1.4,11.4,6.8,11.5,13.5C415.4,390.506,413.5,394.306,409.8,397.106z M438.4,330.206c0,2-0.3,4-0.7,5.9h-72.1    c-0.4-1.9-0.7-3.9-0.7-5.9v-34.9c0-14.7,11.9-26.6,26.6-26.6h20.2c14.7,0,26.6,11.9,26.6,26.6v34.9H438.4z" fill="#2A7FFF"/>
		<path d="M319.5,325.306v-30.1c0-39.7,32.3-71.9,71.9-71.9h20.2c13.2,0,25.6,3.6,36.3,9.8c-5.5-96.7-96.9-173.7-208.9-173.7    c-25,0-48.9,3.8-71.1,10.9c-10.3-15.2-30.1-33.5-67.2-38.1c-11-1.4-18.6,10.6-12.7,20c8.4,13.4,15.6,32.1,9.8,52.5    c-0.3,1.1-0.5,2.2-0.5,3.2c-27.8,22.4-48.6,51.3-59.3,84l0,0H21.9c-12.1,0-21.9,9.8-21.9,21.9v54.1c0,12.1,9.8,21.9,21.9,21.9    h15.2c9.5,30.9,28,58.6,52.9,80.7h-0.1c0.2,0.2,0.5,0.4,0.7,0.6c0.8,0.7,1.6,1.4,2.4,2.1c22.4,20.2,24.4,43.9,24.6,49.9v17.9    c0,6.6,5.3,11.9,11.9,11.9H202c6.6,0,11.9-5.3,11.9-11.9v-17.1c8.3,0.9,16.7,1.3,25.3,1.3c10.9,0,21.7-0.7,32.2-2.2v17.9    c0,6.6,5.3,11.9,11.9,11.9h25c-5.2-7.1-8.2-15.8-8.2-25.2v-66.5C300,346.606,307.7,333.106,319.5,325.306z M112.5,195.806    c-9.9,0-17.9-8-17.9-17.9s8-17.9,17.9-17.9s17.9,8,17.9,17.9S122.4,195.806,112.5,195.806z" fill="#2A7FFF"/>
	</g>
</g>
<g>
</g>
<g>
</g>
<g>
</g>
<g>
</g>
<g>
</g>
<g>
</g>
<g>
</g>
<g>
</g>
<g>
</g>
<g>
</g>
<g>
</g>
<g>
</g>
<g>
</g>
<g>
</g>
<g>
</g>
</svg>
