<?xml version="1.0" encoding="iso-8859-1"?>
<!-- Generator: Adobe Illustrator 17.1.0, SVG Export Plug-In . SVG Version: 6.00 Build 0)  -->
<!DOCTYPE svg PUBLIC "-//W3C//DTD SVG 1.1//EN" "http://www.w3.org/Graphics/SVG/1.1/DTD/svg11.dtd">
<svg xmlns="http://www.w3.org/2000/svg" xmlns:xlink="http://www.w3.org/1999/xlink" version="1.1" id="Capa_1" x="0px" y="0px" viewBox="0 0 209.619 209.619" style="enable-background:new 0 0 209.619 209.619;" xml:space="preserve" width="512px" height="512px">
<path d="M72.238,72.599c-0.948-1.192-1.301-2.752-0.959-4.237l6.101-26.437c0.738-3.195,3.542-5.426,6.821-5.426h41.198  c3.278,0,6.083,2.231,6.821,5.425l6,25.998c0.162,0.492,0.25,1.018,0.25,1.564c0,2.761-2.239,5-5,5c-0.008,0-0.014,0-0.02,0H76.151  C74.627,74.486,73.187,73.791,72.238,72.599z M40.496,123.803h57.297c0.006,0,0.012,0,0.02,0c2.761,0,5-2.239,5-5  c0-0.546-0.087-1.072-0.25-1.564l-6-25.998c-0.738-3.194-3.542-5.425-6.821-5.425H48.546c-3.278,0-6.083,2.231-6.821,5.425  l-6.101,26.437c-0.342,1.485,0.011,3.045,0.959,4.237C37.532,123.108,38.972,123.803,40.496,123.803z M113.035,91.242l-6.101,26.437  c-0.342,1.485,0.011,3.045,0.959,4.237c0.949,1.192,2.389,1.887,3.913,1.887h57.297c0.006,0,0.012,0,0.02,0c2.761,0,5-2.239,5-5  c0-0.546-0.087-1.072-0.25-1.564l-6-25.998c-0.738-3.194-3.542-5.425-6.821-5.425h-41.198  C116.577,85.816,113.772,88.047,113.035,91.242z M61.068,140.562c-0.736-3.196-3.541-5.429-6.821-5.429H13.049  c-3.279,0-6.083,2.231-6.821,5.426l-6.101,26.437c-0.342,1.484,0.011,3.044,0.959,4.237c0.949,1.192,2.389,1.887,3.913,1.887h57.297  c0.006,0,0.012,0,0.02,0c2.761,0,5-2.239,5-5c0-0.546-0.087-1.072-0.25-1.564L61.068,140.562z M209.37,166.556l-5.999-25.997  c-0.737-3.194-3.542-5.426-6.821-5.426h-41.198c-3.28,0-6.085,2.232-6.821,5.426l-6.101,26.437  c-0.342,1.485,0.011,3.045,0.959,4.237c0.949,1.192,2.389,1.887,3.913,1.887h57.297c0.006,0,0.012,0,0.02,0c2.761,0,5-2.239,5-5  C209.619,167.574,209.532,167.048,209.37,166.556z M132.219,140.559c-0.737-3.194-3.542-5.426-6.821-5.426H84.201  c-3.279,0-6.083,2.231-6.821,5.426l-6.101,26.437c-0.342,1.485,0.011,3.045,0.959,4.237c0.949,1.192,2.389,1.887,3.913,1.887h57.297  c0.006,0,0.012,0,0.02,0c2.761,0,5-2.239,5-5c0-0.546-0.087-1.072-0.25-1.564L132.219,140.559z" fill="#2A7FFF"/>
<g>
</g>
<g>
</g>
<g>
</g>
<g>
</g>
<g>
</g>
<g>
</g>
<g>
</g>
<g>
</g>
<g>
</g>
<g>
</g>
<g>
</g>
<g>
</g>
<g>
</g>
<g>
</g>
<g>
</g>
</svg>
