<?xml version="1.0" encoding="iso-8859-1"?>
<!-- Generator: Adobe Illustrator 19.0.0, SVG Export Plug-In . SVG Version: 6.00 Build 0)  -->
<svg xmlns="http://www.w3.org/2000/svg" xmlns:xlink="http://www.w3.org/1999/xlink" version="1.1" id="Layer_1" x="0px" y="0px" viewBox="0 0 512 512" style="enable-background:new 0 0 512 512;" xml:space="preserve" width="512px" height="512px">
<g>
	<g>
		<g>
			<path d="M256,0C114.837,0,0,114.837,0,256s114.837,256,256,256s256-114.837,256-256S397.163,0,256,0z M256,490.667     c-129.387,0-234.667-105.28-234.667-234.667c0-60.864,23.488-116.203,61.611-157.952l109.035,109.035v70.208l-17.771-16.32     c-20.117-20.139-55.253-20.16-75.413,0c-4.011,4.011-4.181,10.453-0.384,14.677l86.037,95.637     c22.677,22.677,52.437,34.005,82.219,34.005c29.781,0,59.541-11.349,82.197-34.005c1.216-1.237,2.176-2.709,3.307-4.011     l61.781,61.781C372.203,467.179,316.864,490.667,256,490.667z M195.413,309.419c3.115,2.859,7.616,3.627,11.52,1.92     c3.883-1.707,6.379-5.547,6.379-9.771v-73.152l123.947,123.947c-1.109,1.323-2.261,2.624-3.477,3.84     c-37.035,36.992-97.259,37.013-133.867,0.405l-77.803-86.528c11.883-5.973,27.221-3.861,37.312,6.272L195.413,309.419z      M429.035,413.973l-69.995-69.995c-0.021-0.021-0.021-0.043-0.043-0.064l-148.8-148.8c-0.021-0.021-0.021-0.021-0.043-0.021     L98.027,82.965C139.776,44.821,195.136,21.333,256,21.333c129.387,0,234.667,105.28,234.667,234.667     C490.667,316.864,467.179,372.224,429.035,413.973z" fill="#2A7FFF"/>
			<path d="M352,149.312c-4.224,0-8.213,0.875-11.904,2.347C336.405,138.069,324.075,128,309.333,128     c-4.203,0-8.213,0.875-11.904,2.347c-3.691-13.589-16.021-23.68-30.763-23.68s-27.072,10.091-30.763,23.68     C232.213,128.875,228.203,128,224,128c-9.664,0-18.752,4.565-24.981,12.544c-3.605,4.651-2.795,11.349,1.856,14.976     c4.629,3.605,11.349,2.795,14.976-1.856c1.259-1.621,3.989-4.331,8.149-4.331c5.888,0,10.667,4.779,10.667,10.667v25.003V192     c0,5.888,4.779,10.667,10.667,10.667S256,197.888,256,192v-6.997V160v-21.333c0-5.888,4.779-10.667,10.667-10.667     s10.667,4.779,10.667,10.667V160v64c0,5.888,4.779,10.667,10.667,10.667s10.667-4.779,10.667-10.667v-64     c0-5.888,4.779-10.667,10.667-10.667S320,154.112,320,160v21.312V224v21.312c0,5.888,4.779,10.667,10.667,10.667     s10.667-4.779,10.667-10.667V224v-42.688c0-5.888,4.779-10.667,10.667-10.667c5.888,0,10.667,4.779,10.667,10.667v106.667     c0,6.293-0.789,12.821-2.411,19.968c-1.301,5.76,2.304,11.456,8.043,12.779c0.789,0.171,1.579,0.256,2.368,0.256     c4.864,0,9.28-3.349,10.389-8.32c1.984-8.725,2.944-16.789,2.944-24.683V181.312C384,163.669,369.643,149.312,352,149.312z" fill="#2A7FFF"/>
		</g>
	</g>
</g>
<g>
</g>
<g>
</g>
<g>
</g>
<g>
</g>
<g>
</g>
<g>
</g>
<g>
</g>
<g>
</g>
<g>
</g>
<g>
</g>
<g>
</g>
<g>
</g>
<g>
</g>
<g>
</g>
<g>
</g>
</svg>
