<?xml version="1.0" encoding="iso-8859-1"?>
<!-- Generator: Adobe Illustrator 18.0.0, SVG Export Plug-In . SVG Version: 6.00 Build 0)  -->
<!DOCTYPE svg PUBLIC "-//W3C//DTD SVG 1.1//EN" "http://www.w3.org/Graphics/SVG/1.1/DTD/svg11.dtd">
<svg xmlns="http://www.w3.org/2000/svg" xmlns:xlink="http://www.w3.org/1999/xlink" version="1.1" id="Capa_1" x="0px" y="0px" viewBox="0 0 297 297" style="enable-background:new 0 0 297 297;" xml:space="preserve" width="512px" height="512px">
<path d="M278.963,228.309H256.23V75.115c0-5.458-4.425-9.884-9.884-9.884h-39.04V54.112c0-11.853-9.643-21.497-21.497-21.497  h-25.697c-11.853,0-21.497,9.643-21.497,21.497v11.119h-39.04c-5.458,0-9.884,4.425-9.884,9.884v149.981  c-7.66-4.308-12.849-12.51-12.849-21.907V44.887C76.844,20.136,56.708,0,31.956,0H18.037c-5.458,0-9.884,4.425-9.884,9.884  s4.425,9.884,9.884,9.884h13.919c13.851,0,25.121,11.269,25.121,25.12v158.302c0,20.604,13.959,37.998,32.913,43.252  c-9.712,3.835-16.605,13.308-16.605,24.367c0,14.442,11.749,26.191,26.191,26.191s26.191-11.749,26.191-26.191  c0-9.719-5.325-18.212-13.207-22.732h120.802c-7.882,4.52-13.207,13.013-13.207,22.732c0,14.442,11.749,26.191,26.191,26.191  s26.191-11.749,26.191-26.191c0-9.719-5.325-18.212-13.207-22.732h19.632c5.458,0,9.884-4.425,9.884-9.884  C288.846,232.735,284.421,228.309,278.963,228.309z M236.463,228.309h-12.849V84.998h12.849V228.309z M203.848,84.998v143.311  h-61.772V84.998H203.848z M158.384,54.112c0-0.954,0.776-1.73,1.73-1.73h25.697c0.954,0,1.73,0.776,1.73,1.73v11.119h-29.156V54.112  z M109.46,84.998h12.849v143.311H109.46V84.998z M99.577,277.233c-3.542,0-6.424-2.882-6.424-6.424s2.882-6.424,6.424-6.424  c3.542,0,6.424,2.882,6.424,6.424S103.119,277.233,99.577,277.233z M246.347,277.233c-3.542,0-6.424-2.882-6.424-6.424  s2.882-6.424,6.424-6.424s6.424,2.882,6.424,6.424S249.889,277.233,246.347,277.233z" fill="#FFFFFF"/>
<g>
</g>
<g>
</g>
<g>
</g>
<g>
</g>
<g>
</g>
<g>
</g>
<g>
</g>
<g>
</g>
<g>
</g>
<g>
</g>
<g>
</g>
<g>
</g>
<g>
</g>
<g>
</g>
<g>
</g>
</svg>
