<?xml version="1.0" encoding="iso-8859-1"?>
<!-- Generator: Adobe Illustrator 18.1.1, SVG Export Plug-In . SVG Version: 6.00 Build 0)  -->
<svg xmlns="http://www.w3.org/2000/svg" xmlns:xlink="http://www.w3.org/1999/xlink" version="1.1" id="Capa_1" x="0px" y="0px" viewBox="0 0 43.375 43.375" style="enable-background:new 0 0 43.375 43.375;" xml:space="preserve" width="512px" height="512px">
<g>
	<path d="M41.625,24.278H35.25V7.763c0-0.965-0.785-1.75-1.75-1.75H1.75C0.785,6.013,0,6.798,0,7.763v22.059   c0,0.965,0.785,1.75,1.75,1.75h23.875v4.041c0,0.965,0.785,1.75,1.75,1.75h14.25c0.965,0,1.75-0.785,1.75-1.75v-9.584   C43.375,25.063,42.59,24.278,41.625,24.278z M14.325,15.5l-2.128,2.128c-0.073,0.074-0.139,0.12-0.184,0.15   c-0.013-0.05-0.024-0.124-0.024-0.236l0.001-6.289c0.001-0.524,0.427-0.95,0.951-0.95L19.23,10.3c0.111,0,0.188,0.013,0.235,0.023   c-0.028,0.047-0.076,0.11-0.149,0.185l-1.884,1.854l-0.605,0.642l0.643,0.275c0.089,0.029,8.314,3.138,8.834,10.852   C22.523,17.101,14.408,15.515,14.325,15.5z M18.385,12.753l1.589-1.588c0.626-0.626,0.508-1.187,0.219-1.476   c-0.211-0.213-0.535-0.319-0.962-0.319l-6.289,0.001c-1.037,0-1.881,0.845-1.881,1.881l-0.001,6.289   c0,0.428,0.107,0.751,0.319,0.962c0.29,0.29,0.85,0.406,1.476-0.218l1.76-1.735c1.26,0.307,6.371,1.793,9.633,6.321   c0.74,1.027,1.293,2.05,1.546,2.418c-0.104,0.227-0.169,0.475-0.169,0.738v4.043H1.75c-0.138,0-0.25-0.113-0.25-0.25V7.763   c0-0.138,0.112-0.25,0.25-0.25H33.5c0.139,0,0.25,0.112,0.25,0.25v16.516h-6.375c-0.007,0-0.014,0.002-0.021,0.002   c0.002-0.564-0.054-1.322-0.244-2.113C25.779,16.617,20.556,13.732,18.385,12.753z M33.75,25.778v4.043   c0,0.137-0.111,0.25-0.25,0.25h-6.375v-4.043c0-0.138,0.111-0.25,0.25-0.25H33.75z M41.875,35.612c0,0.137-0.111,0.25-0.25,0.25   h-14.25c-0.139,0-0.25-0.113-0.25-0.25v-4.041H33.5c0.965,0,1.75-0.785,1.75-1.75v-4.043h6.375c0.139,0,0.25,0.112,0.25,0.25   V35.612z" fill="#2A7FFF"/>
</g>
<g>
</g>
<g>
</g>
<g>
</g>
<g>
</g>
<g>
</g>
<g>
</g>
<g>
</g>
<g>
</g>
<g>
</g>
<g>
</g>
<g>
</g>
<g>
</g>
<g>
</g>
<g>
</g>
<g>
</g>
</svg>
